<mxfile host="app.diagrams.net" modified="2022-12-05T13:49:52.908Z" agent="5.0 (Macintosh; Intel Mac OS X 10_15_7) AppleWebKit/537.36 (KHTML, like Gecko) Chrome/107.0.0.0 Safari/537.36" etag="sXk8XBayAEiTj5NgiVu9" version="20.6.0" type="github">
  <diagram name="Page-1" id="74e2e168-ea6b-b213-b513-2b3c1d86103e">
    <mxGraphModel dx="1145" dy="925" grid="1" gridSize="10" guides="1" tooltips="1" connect="1" arrows="1" fold="1" page="1" pageScale="1" pageWidth="1100" pageHeight="850" background="none" math="0" shadow="0">
      <root>
        <mxCell id="0" />
        <mxCell id="1" parent="0" />
        <mxCell id="77e6c97f196da883-1" value="Pregnancies" style="swimlane;html=1;childLayout=stackLayout;startSize=20;rounded=0;shadow=0;labelBackgroundColor=none;strokeWidth=1;fontFamily=Verdana;fontSize=8;align=center;" parent="1" vertex="1">
          <mxGeometry x="10" y="10" width="980" height="750" as="geometry" />
        </mxCell>
        <mxCell id="77e6c97f196da883-2" value="MFR" style="swimlane;html=1;startSize=20;" parent="77e6c97f196da883-1" vertex="1">
          <mxGeometry y="20" width="160" height="730" as="geometry" />
        </mxCell>
        <mxCell id="HpYI8zSi32zXkGrWebMB-3" style="edgeStyle=orthogonalEdgeStyle;rounded=0;orthogonalLoop=1;jettySize=auto;html=1;exitX=0.5;exitY=1;exitDx=0;exitDy=0;entryX=0.5;entryY=0;entryDx=0;entryDy=0;fontSize=10;" edge="1" parent="77e6c97f196da883-2" source="77e6c97f196da883-8" target="77e6c97f196da883-9">
          <mxGeometry relative="1" as="geometry">
            <Array as="points">
              <mxPoint x="70" y="140" />
              <mxPoint x="70" y="140" />
            </Array>
          </mxGeometry>
        </mxCell>
        <mxCell id="77e6c97f196da883-8" value="&lt;p style=&quot;margin: 0cm; font-family: Calibri, sans-serif; text-align: start; font-size: 10px;&quot; class=&quot;MsoNormal&quot;&gt;&lt;span style=&quot;&quot; lang=&quot;EN-GB&quot;&gt;&lt;font style=&quot;font-size: 10px;&quot;&gt;All records in MFR&lt;/font&gt;&lt;/span&gt;&lt;/p&gt;&lt;p style=&quot;margin: 0cm; font-family: Calibri, sans-serif; text-align: start; font-size: 10px;&quot; class=&quot;MsoNormal&quot;&gt;&lt;span style=&quot;&quot; lang=&quot;EN-GB&quot;&gt;&lt;font style=&quot;font-size: 10px;&quot;&gt;1/1-1997 to 31/12-2018&lt;/font&gt;&lt;/span&gt;&lt;/p&gt;&lt;span style=&quot;text-align: start; font-family: Calibri, sans-serif; font-size: 10px;&quot; lang=&quot;EN-GB&quot;&gt;&lt;font style=&quot;font-size: 10px;&quot;&gt;1,393,334 records&lt;/font&gt;&lt;/span&gt;&lt;span style=&quot;font-size: medium; text-align: start;&quot;&gt;&lt;/span&gt;" style="rounded=1;whiteSpace=wrap;html=1;shadow=0;labelBackgroundColor=none;strokeWidth=1;fontFamily=Verdana;fontSize=8;align=center;" parent="77e6c97f196da883-2" vertex="1">
          <mxGeometry x="20" y="40" width="100" height="60" as="geometry" />
        </mxCell>
        <mxCell id="HpYI8zSi32zXkGrWebMB-13" style="edgeStyle=orthogonalEdgeStyle;rounded=0;orthogonalLoop=1;jettySize=auto;html=1;exitX=0.5;exitY=1;exitDx=0;exitDy=0;entryX=0.5;entryY=0;entryDx=0;entryDy=0;fontSize=10;" edge="1" parent="77e6c97f196da883-2" source="77e6c97f196da883-9" target="77e6c97f196da883-12">
          <mxGeometry relative="1" as="geometry" />
        </mxCell>
        <mxCell id="77e6c97f196da883-9" value="1,122" style="rounded=1;whiteSpace=wrap;html=1;shadow=0;labelBackgroundColor=none;strokeWidth=1;fontFamily=Verdana;fontSize=8;align=center;" parent="77e6c97f196da883-2" vertex="1">
          <mxGeometry x="20" y="180" width="100" height="60" as="geometry" />
        </mxCell>
        <mxCell id="77e6c97f196da883-10" value="without GA" style="rounded=1;whiteSpace=wrap;html=1;shadow=0;labelBackgroundColor=none;strokeWidth=1;fontFamily=Verdana;fontSize=8;align=center;" parent="77e6c97f196da883-2" vertex="1">
          <mxGeometry x="85" y="420" width="70" height="45" as="geometry" />
        </mxCell>
        <mxCell id="HpYI8zSi32zXkGrWebMB-4" value="removal of duplicate deadborn&amp;nbsp;&lt;br&gt;n=" style="rounded=1;whiteSpace=wrap;html=1;shadow=0;labelBackgroundColor=none;strokeWidth=1;fontFamily=Verdana;fontSize=8;align=center;" vertex="1" parent="77e6c97f196da883-2">
          <mxGeometry x="90" y="120" width="60" height="40" as="geometry" />
        </mxCell>
        <mxCell id="HpYI8zSi32zXkGrWebMB-9" value="removal of duplicates&lt;br&gt;n=&amp;nbsp;" style="rounded=1;whiteSpace=wrap;html=1;shadow=0;labelBackgroundColor=none;strokeWidth=1;fontFamily=Verdana;fontSize=8;align=center;" vertex="1" parent="77e6c97f196da883-2">
          <mxGeometry x="90" y="270" width="60" height="40" as="geometry" />
        </mxCell>
        <mxCell id="HpYI8zSi32zXkGrWebMB-10" value="" style="endArrow=classic;html=1;rounded=0;fontSize=10;entryX=0;entryY=0.5;entryDx=0;entryDy=0;" edge="1" parent="77e6c97f196da883-2" target="HpYI8zSi32zXkGrWebMB-4">
          <mxGeometry width="50" height="50" relative="1" as="geometry">
            <mxPoint x="70" y="140" as="sourcePoint" />
            <mxPoint x="120" y="90" as="targetPoint" />
          </mxGeometry>
        </mxCell>
        <mxCell id="HpYI8zSi32zXkGrWebMB-12" value="" style="endArrow=classic;html=1;rounded=0;fontSize=10;entryX=0;entryY=0.5;entryDx=0;entryDy=0;" edge="1" parent="77e6c97f196da883-2" target="HpYI8zSi32zXkGrWebMB-9">
          <mxGeometry width="50" height="50" relative="1" as="geometry">
            <mxPoint x="70" y="290" as="sourcePoint" />
            <mxPoint x="120" y="240" as="targetPoint" />
          </mxGeometry>
        </mxCell>
        <mxCell id="HpYI8zSi32zXkGrWebMB-15" style="edgeStyle=orthogonalEdgeStyle;rounded=0;orthogonalLoop=1;jettySize=auto;html=1;exitX=0.5;exitY=1;exitDx=0;exitDy=0;fontSize=10;" edge="1" parent="77e6c97f196da883-2" source="77e6c97f196da883-12" target="HpYI8zSi32zXkGrWebMB-14">
          <mxGeometry relative="1" as="geometry" />
        </mxCell>
        <mxCell id="HpYI8zSi32zXkGrWebMB-16" style="edgeStyle=orthogonalEdgeStyle;rounded=0;orthogonalLoop=1;jettySize=auto;html=1;exitX=0.5;exitY=1;exitDx=0;exitDy=0;entryX=0.5;entryY=0;entryDx=0;entryDy=0;fontSize=10;" edge="1" parent="77e6c97f196da883-2" source="77e6c97f196da883-12" target="77e6c97f196da883-10">
          <mxGeometry relative="1" as="geometry" />
        </mxCell>
        <mxCell id="77e6c97f196da883-12" value="" style="rounded=1;whiteSpace=wrap;html=1;shadow=0;labelBackgroundColor=none;strokeWidth=1;fontFamily=Verdana;fontSize=8;align=center;" parent="77e6c97f196da883-2" vertex="1">
          <mxGeometry x="20" y="330" width="100" height="60" as="geometry" />
        </mxCell>
        <mxCell id="HpYI8zSi32zXkGrWebMB-19" style="edgeStyle=orthogonalEdgeStyle;rounded=0;orthogonalLoop=1;jettySize=auto;html=1;exitX=0.5;exitY=1;exitDx=0;exitDy=0;fontSize=10;" edge="1" parent="77e6c97f196da883-2" source="HpYI8zSi32zXkGrWebMB-14" target="HpYI8zSi32zXkGrWebMB-18">
          <mxGeometry relative="1" as="geometry" />
        </mxCell>
        <mxCell id="HpYI8zSi32zXkGrWebMB-24" style="edgeStyle=orthogonalEdgeStyle;rounded=0;orthogonalLoop=1;jettySize=auto;html=1;exitX=0.5;exitY=1;exitDx=0;exitDy=0;fontSize=10;" edge="1" parent="77e6c97f196da883-2" source="HpYI8zSi32zXkGrWebMB-14" target="HpYI8zSi32zXkGrWebMB-20">
          <mxGeometry relative="1" as="geometry" />
        </mxCell>
        <mxCell id="HpYI8zSi32zXkGrWebMB-14" value="with GA" style="rounded=1;whiteSpace=wrap;html=1;fontSize=10;" vertex="1" parent="77e6c97f196da883-2">
          <mxGeometry y="415" width="60" height="50" as="geometry" />
        </mxCell>
        <mxCell id="HpYI8zSi32zXkGrWebMB-18" value="Births" style="rounded=1;whiteSpace=wrap;html=1;fontSize=10;" vertex="1" parent="77e6c97f196da883-2">
          <mxGeometry y="540" width="60" height="25" as="geometry" />
        </mxCell>
        <mxCell id="HpYI8zSi32zXkGrWebMB-20" value="abortions" style="rounded=1;whiteSpace=wrap;html=1;fontSize=10;" vertex="1" parent="77e6c97f196da883-2">
          <mxGeometry x="80" y="540" width="60" height="25" as="geometry" />
        </mxCell>
        <mxCell id="77e6c97f196da883-40" style="edgeStyle=orthogonalEdgeStyle;rounded=1;html=1;labelBackgroundColor=none;startArrow=none;startFill=0;startSize=5;endArrow=classicThin;endFill=1;endSize=5;jettySize=auto;orthogonalLoop=1;strokeWidth=1;fontFamily=Verdana;fontSize=8" parent="77e6c97f196da883-1" source="77e6c97f196da883-23" target="77e6c97f196da883-24" edge="1">
          <mxGeometry relative="1" as="geometry" />
        </mxCell>
        <mxCell id="77e6c97f196da883-3" value="LPR" style="swimlane;html=1;startSize=20;" parent="77e6c97f196da883-1" vertex="1">
          <mxGeometry x="160" y="20" width="180" height="730" as="geometry" />
        </mxCell>
        <mxCell id="HpYI8zSi32zXkGrWebMB-31" style="edgeStyle=orthogonalEdgeStyle;rounded=0;orthogonalLoop=1;jettySize=auto;html=1;exitX=0.5;exitY=1;exitDx=0;exitDy=0;fontSize=10;" edge="1" parent="77e6c97f196da883-3" source="77e6c97f196da883-11" target="HpYI8zSi32zXkGrWebMB-30">
          <mxGeometry relative="1" as="geometry" />
        </mxCell>
        <mxCell id="77e6c97f196da883-11" value="All records in LPR_DIAG between 1997-2018" style="rounded=1;whiteSpace=wrap;html=1;shadow=0;labelBackgroundColor=none;strokeWidth=1;fontFamily=Verdana;fontSize=8;align=center;" parent="77e6c97f196da883-3" vertex="1">
          <mxGeometry x="30" y="40" width="100" height="60" as="geometry" />
        </mxCell>
        <mxCell id="HpYI8zSi32zXkGrWebMB-33" style="edgeStyle=orthogonalEdgeStyle;rounded=0;orthogonalLoop=1;jettySize=auto;html=1;exitX=0.5;exitY=1;exitDx=0;exitDy=0;fontSize=10;" edge="1" parent="77e6c97f196da883-3" source="HpYI8zSi32zXkGrWebMB-30" target="HpYI8zSi32zXkGrWebMB-32">
          <mxGeometry relative="1" as="geometry" />
        </mxCell>
        <mxCell id="HpYI8zSi32zXkGrWebMB-30" value="records with diagnosis code between DO00-DO99 and DZ30-DZ39" style="rounded=1;whiteSpace=wrap;html=1;shadow=0;labelBackgroundColor=none;strokeWidth=1;fontFamily=Verdana;fontSize=8;align=center;" vertex="1" parent="77e6c97f196da883-3">
          <mxGeometry x="30" y="160" width="100" height="60" as="geometry" />
        </mxCell>
        <mxCell id="HpYI8zSi32zXkGrWebMB-38" style="edgeStyle=orthogonalEdgeStyle;rounded=0;orthogonalLoop=1;jettySize=auto;html=1;exitX=0.5;exitY=1;exitDx=0;exitDy=0;fontSize=10;" edge="1" parent="77e6c97f196da883-3" source="HpYI8zSi32zXkGrWebMB-32" target="HpYI8zSi32zXkGrWebMB-37">
          <mxGeometry relative="1" as="geometry" />
        </mxCell>
        <mxCell id="HpYI8zSi32zXkGrWebMB-32" value="" style="rounded=1;whiteSpace=wrap;html=1;shadow=0;labelBackgroundColor=none;strokeWidth=1;fontFamily=Verdana;fontSize=8;align=center;" vertex="1" parent="77e6c97f196da883-3">
          <mxGeometry x="30" y="300" width="100" height="60" as="geometry" />
        </mxCell>
        <mxCell id="HpYI8zSi32zXkGrWebMB-35" value="&lt;span style=&quot;font-family: Verdana; font-size: 8px;&quot;&gt;removal of duplicates&lt;/span&gt;&lt;br style=&quot;font-family: Verdana; font-size: 8px;&quot;&gt;&lt;span style=&quot;font-family: Verdana; font-size: 8px;&quot;&gt;n=&amp;nbsp;&lt;/span&gt;" style="rounded=1;whiteSpace=wrap;html=1;fontSize=10;" vertex="1" parent="77e6c97f196da883-3">
          <mxGeometry x="100" y="240" width="70" height="40" as="geometry" />
        </mxCell>
        <mxCell id="HpYI8zSi32zXkGrWebMB-37" value="" style="rounded=1;whiteSpace=wrap;html=1;shadow=0;labelBackgroundColor=none;strokeWidth=1;fontFamily=Verdana;fontSize=8;align=center;" vertex="1" parent="77e6c97f196da883-3">
          <mxGeometry x="30" y="395" width="100" height="60" as="geometry" />
        </mxCell>
        <mxCell id="77e6c97f196da883-4" value="LPR_SKS" style="swimlane;html=1;startSize=20;" parent="77e6c97f196da883-1" vertex="1">
          <mxGeometry x="340" y="20" width="160" height="730" as="geometry" />
        </mxCell>
        <mxCell id="77e6c97f196da883-5" value="Abortions" style="swimlane;html=1;startSize=20;" parent="77e6c97f196da883-1" vertex="1">
          <mxGeometry x="500" y="20" width="160" height="730" as="geometry" />
        </mxCell>
        <mxCell id="77e6c97f196da883-19" value="" style="rounded=1;whiteSpace=wrap;html=1;shadow=0;labelBackgroundColor=none;strokeWidth=1;fontFamily=Verdana;fontSize=8;align=center;" parent="77e6c97f196da883-5" vertex="1">
          <mxGeometry x="30" y="560" width="100" height="60" as="geometry" />
        </mxCell>
        <mxCell id="77e6c97f196da883-6" value="Births" style="swimlane;html=1;startSize=20;" parent="77e6c97f196da883-1" vertex="1">
          <mxGeometry x="660" y="20" width="160" height="730" as="geometry" />
        </mxCell>
        <mxCell id="77e6c97f196da883-23" value="" style="rounded=1;whiteSpace=wrap;html=1;shadow=0;labelBackgroundColor=none;strokeWidth=1;fontFamily=Verdana;fontSize=8;align=center;" parent="77e6c97f196da883-6" vertex="1">
          <mxGeometry x="30" y="640" width="100" height="60" as="geometry" />
        </mxCell>
        <mxCell id="77e6c97f196da883-7" value="All pregnancies" style="swimlane;html=1;startSize=20;" parent="77e6c97f196da883-1" vertex="1">
          <mxGeometry x="820" y="20" width="160" height="730" as="geometry" />
        </mxCell>
        <mxCell id="77e6c97f196da883-24" value="" style="rounded=1;whiteSpace=wrap;html=1;shadow=0;labelBackgroundColor=none;strokeWidth=1;fontFamily=Verdana;fontSize=8;align=center;" parent="77e6c97f196da883-7" vertex="1">
          <mxGeometry x="30" y="640" width="100" height="60" as="geometry" />
        </mxCell>
        <mxCell id="HpYI8zSi32zXkGrWebMB-28" value="" style="rounded=1;whiteSpace=wrap;html=1;shadow=0;labelBackgroundColor=none;strokeWidth=1;fontFamily=Verdana;fontSize=8;align=center;" vertex="1" parent="77e6c97f196da883-7">
          <mxGeometry x="30" y="560" width="100" height="60" as="geometry" />
        </mxCell>
        <mxCell id="HpYI8zSi32zXkGrWebMB-26" style="edgeStyle=orthogonalEdgeStyle;rounded=0;orthogonalLoop=1;jettySize=auto;html=1;entryX=0;entryY=0.75;entryDx=0;entryDy=0;fontSize=10;" edge="1" parent="77e6c97f196da883-1" source="HpYI8zSi32zXkGrWebMB-18" target="77e6c97f196da883-23">
          <mxGeometry relative="1" as="geometry">
            <Array as="points">
              <mxPoint x="30" y="620" />
              <mxPoint x="90" y="620" />
              <mxPoint x="90" y="705" />
            </Array>
          </mxGeometry>
        </mxCell>
        <mxCell id="HpYI8zSi32zXkGrWebMB-27" style="edgeStyle=orthogonalEdgeStyle;rounded=0;orthogonalLoop=1;jettySize=auto;html=1;exitX=0.5;exitY=1;exitDx=0;exitDy=0;fontSize=10;" edge="1" parent="77e6c97f196da883-1" source="HpYI8zSi32zXkGrWebMB-20" target="77e6c97f196da883-19">
          <mxGeometry relative="1" as="geometry" />
        </mxCell>
        <mxCell id="HpYI8zSi32zXkGrWebMB-29" style="edgeStyle=orthogonalEdgeStyle;rounded=0;orthogonalLoop=1;jettySize=auto;html=1;exitX=1;exitY=0.5;exitDx=0;exitDy=0;fontSize=10;" edge="1" parent="77e6c97f196da883-1" source="77e6c97f196da883-19" target="HpYI8zSi32zXkGrWebMB-28">
          <mxGeometry relative="1" as="geometry" />
        </mxCell>
        <mxCell id="HpYI8zSi32zXkGrWebMB-34" value="" style="endArrow=classic;html=1;rounded=0;fontSize=10;" edge="1" parent="1" target="HpYI8zSi32zXkGrWebMB-35">
          <mxGeometry width="50" height="50" relative="1" as="geometry">
            <mxPoint x="250" y="290" as="sourcePoint" />
            <mxPoint x="280" y="290" as="targetPoint" />
          </mxGeometry>
        </mxCell>
      </root>
    </mxGraphModel>
  </diagram>
</mxfile>
